<?xml version="1.0" encoding="UTF-8" ?>
<!DOCTYPE svg PUBLIC "-//W3C//DTD SVG 1.1//EN" "http://www.w3.org/Graphics/SVG/1.1/DTD/svg11.dtd">
<svg width="436pt" height="436pt" viewBox="0 0 436 436" version="1.1" xmlns="http://www.w3.org/2000/svg">
<g id="#45464467">
<path fill="#454644" opacity="0.40" d=" M 119.95 78.91 C 128.75 69.21 142.09 64.68 155.01 65.05 C 170.23 65.65 186.96 69.63 196.99 82.00 C 193.51 79.87 190.57 77.00 187.14 74.81 C 179.89 70.56 171.70 67.98 163.33 67.23 C 154.11 65.66 144.53 66.48 135.71 69.57 C 129.84 71.56 125.39 76.11 119.95 78.91 Z" />
<path fill="#454644" opacity="0.40" d=" M 103.24 99.30 C 107.19 92.78 111.73 86.51 117.26 81.23 C 114.53 86.63 109.88 90.68 106.75 95.82 C 95.96 111.68 93.58 133.82 103.11 150.83 C 105.10 154.18 107.39 157.34 109.22 160.79 C 102.43 154.49 98.76 145.60 96.53 136.79 C 94.59 124.05 96.56 110.46 103.24 99.30 Z" />
<path fill="#454644" opacity="0.40" d=" M 327.71 95.25 C 339.10 106.40 343.41 123.86 340.13 139.30 C 338.03 146.04 334.93 152.86 329.73 157.78 C 332.85 151.77 337.13 146.23 338.63 139.50 C 341.24 128.25 339.62 116.08 334.18 105.90 C 332.05 102.33 329.80 98.84 327.71 95.25 Z" />
<path fill="#454644" opacity="0.40" d=" M 184.98 105.94 C 190.63 109.11 191.81 116.31 193.96 121.90 C 196.48 127.98 195.29 134.62 195.50 141.00 C 195.34 145.72 195.98 150.50 195.16 155.18 C 190.97 156.33 186.71 154.44 182.53 154.06 C 176.66 152.68 170.57 154.42 164.71 152.97 C 161.03 152.14 157.21 153.03 153.54 152.13 C 149.67 151.17 145.67 151.79 141.76 151.31 L 142.65 150.57 C 153.47 150.05 164.18 152.59 175.01 152.44 C 181.36 152.27 187.58 153.70 193.80 154.79 C 194.38 147.87 194.02 140.92 194.20 133.99 C 194.66 123.92 190.87 113.99 184.98 105.94 Z" />
<path fill="#454644" opacity="0.40" d=" M 111.18 162.80 C 114.25 164.38 117.26 166.06 120.22 167.83 C 127.33 171.98 135.41 174.20 143.55 175.18 C 143.04 176.95 142.60 178.75 142.27 180.56 C 138.50 184.15 133.81 186.50 129.81 189.79 C 127.76 191.48 125.54 192.94 123.28 194.33 C 128.08 188.58 134.74 184.97 140.81 180.77 C 141.12 179.15 141.47 177.54 141.89 175.94 C 134.62 175.72 127.66 173.12 121.27 169.81 C 117.69 167.81 113.93 165.91 111.18 162.80 Z" />
<path fill="#454644" opacity="0.40" d=" M 228.77 191.06 C 235.76 189.90 243.35 190.08 249.79 193.31 C 260.40 199.45 272.82 201.98 282.86 209.22 C 288.34 213.38 295.13 216.01 299.29 221.72 C 292.01 216.62 284.65 211.61 277.07 206.99 C 268.35 202.39 259.01 199.12 249.93 195.32 C 245.83 193.59 241.54 192.17 237.08 191.87 C 229.19 191.15 221.69 194.67 213.81 194.13 C 213.61 199.25 213.51 204.38 213.88 209.49 C 210.64 204.58 213.15 198.25 212.18 192.74 C 217.75 192.68 223.31 192.31 228.77 191.06 Z" />
<path fill="#454644" opacity="0.40" d=" M 205.21 193.39 C 205.55 193.38 206.24 193.36 206.58 193.35 C 206.93 203.29 205.84 213.29 207.34 223.17 C 208.35 232.56 209.01 242.12 211.62 251.24 C 211.91 253.53 214.49 253.28 216.20 253.60 C 216.30 249.21 216.50 244.82 216.71 240.44 C 218.20 244.29 218.18 248.56 217.40 252.57 C 216.70 254.59 213.99 254.93 212.22 254.25 C 210.64 252.77 210.06 250.58 209.49 248.57 C 207.53 240.21 206.79 231.64 205.91 223.13 C 204.46 213.27 205.74 203.30 205.21 193.39 Z" />
<path fill="#454644" opacity="0.40" d=" M 103.58 216.60 C 104.56 215.24 105.77 214.08 106.97 212.93 C 104.47 217.65 101.40 222.03 98.39 226.44 C 91.80 236.53 85.49 246.90 80.98 258.11 C 77.71 266.30 73.42 274.16 71.67 282.88 C 70.35 289.50 69.29 296.22 69.56 303.00 C 69.83 309.57 69.12 316.19 69.99 322.73 C 70.76 329.04 74.79 334.17 77.00 339.98 C 71.63 333.64 67.87 325.47 68.24 317.02 C 68.46 309.67 68.12 302.31 68.27 294.97 C 68.91 291.68 69.66 288.41 69.93 285.06 C 71.18 275.90 75.75 267.72 79.14 259.25 C 85.23 243.95 94.42 230.19 103.58 216.60 Z" />
<path fill="#454644" opacity="0.40" d=" M 337.01 232.93 C 339.68 235.92 340.96 239.78 342.78 243.29 C 347.25 252.24 352.72 260.65 357.69 269.33 C 360.53 274.76 364.45 279.58 366.77 285.29 C 369.15 291.28 372.50 297.32 371.72 304.00 C 372.00 313.41 371.72 323.37 366.79 331.71 C 364.17 337.17 359.42 341.09 354.84 344.86 C 350.74 347.84 346.72 351.07 341.99 353.02 C 350.13 345.84 361.07 341.18 365.95 330.87 C 371.05 321.06 370.70 309.68 370.25 298.95 C 367.77 286.20 359.72 275.65 353.54 264.52 C 347.54 254.27 340.87 244.23 337.01 232.93 Z" />
<path fill="#454644" opacity="0.40" d=" M 315.78 334.97 C 321.81 333.76 327.55 331.50 333.26 329.27 C 326.73 334.43 318.18 335.50 310.33 337.42 C 299.52 340.79 288.19 341.82 277.06 343.66 C 269.09 345.28 261.03 343.59 253.00 343.79 C 232.00 343.85 211.00 343.82 189.99 343.81 C 184.23 343.66 178.27 345.47 172.70 343.27 C 205.14 343.25 237.60 343.28 270.04 343.26 C 278.83 342.62 287.46 340.66 296.17 339.40 C 302.84 338.51 309.20 336.27 315.78 334.97 Z" />
<path fill="#454644" opacity="0.40" d=" M 82.24 345.73 C 85.64 347.65 89.02 349.64 92.24 351.86 C 98.04 355.86 104.69 358.36 111.22 360.91 C 118.05 363.58 125.48 363.48 132.62 364.70 C 138.70 365.71 144.81 366.85 151.00 366.50 C 159.10 366.05 167.17 367.16 175.20 368.11 C 171.54 368.65 167.80 368.89 164.15 368.18 C 156.86 366.65 149.38 368.24 142.04 367.36 C 134.71 366.32 127.42 364.93 120.03 364.38 C 113.25 363.79 107.14 360.61 100.95 358.05 C 98.00 356.82 95.24 355.22 92.58 353.45 C 89.03 351.03 84.92 349.21 82.24 345.73 Z" />
<path fill="#454644" opacity="0.40" d=" M 303.96 363.19 C 316.10 360.51 328.14 357.38 340.14 354.12 C 336.07 356.92 331.02 357.72 326.41 359.29 C 316.83 361.25 307.50 364.36 297.77 365.63 C 289.52 366.83 281.33 368.87 272.94 368.77 C 270.28 368.88 267.70 369.69 265.03 369.81 C 235.07 369.72 205.10 369.66 175.13 369.87 C 175.15 369.43 175.18 368.55 175.20 368.11 C 180.44 368.79 185.73 368.37 191.00 368.42 C 214.68 368.44 238.36 368.38 262.04 368.46 C 265.71 368.45 269.33 367.72 272.99 367.50 C 283.43 367.10 293.66 364.79 303.96 363.19 Z" />
</g>
<g id="#7b7874ff">
<path fill="#7b7874" opacity="1.00" d=" M 135.71 69.57 C 144.53 66.48 154.11 65.66 163.33 67.23 C 171.70 67.98 179.89 70.56 187.14 74.81 C 190.57 77.00 193.51 79.87 196.99 82.00 C 204.42 88.97 210.53 97.55 214.58 106.94 C 217.93 105.37 218.77 101.49 220.62 98.61 C 222.49 95.27 225.55 92.89 228.15 90.15 C 233.46 84.27 240.33 80.13 246.99 75.97 C 251.13 73.10 256.36 73.09 261.06 71.77 C 267.00 71.45 272.99 71.46 278.93 71.80 C 290.81 74.03 302.87 76.69 313.57 82.52 C 319.36 85.44 322.80 91.20 327.71 95.25 C 329.80 98.84 332.05 102.33 334.18 105.90 C 339.62 116.08 341.24 128.25 338.63 139.50 C 337.13 146.23 332.85 151.77 329.73 157.78 C 322.87 166.19 313.00 171.85 302.64 174.81 C 296.61 176.81 290.97 179.81 285.01 182.00 C 287.07 184.62 290.43 185.33 293.19 186.92 C 301.82 192.42 310.31 198.22 317.95 205.05 C 325.35 213.55 332.17 222.70 337.01 232.93 C 340.87 244.23 347.54 254.27 353.54 264.52 C 359.72 275.65 367.77 286.20 370.25 298.95 C 370.70 309.68 371.05 321.06 365.95 330.87 C 361.07 341.18 350.13 345.84 341.99 353.02 C 341.53 353.29 340.60 353.84 340.14 354.12 C 328.14 357.38 316.10 360.51 303.96 363.19 C 293.66 364.79 283.43 367.10 272.99 367.50 C 269.33 367.72 265.71 368.45 262.04 368.46 C 238.36 368.38 214.68 368.44 191.00 368.42 C 185.73 368.37 180.44 368.79 175.20 368.11 C 167.17 367.16 159.10 366.05 151.00 366.50 C 144.81 366.85 138.70 365.71 132.62 364.70 C 125.48 363.48 118.05 363.58 111.22 360.91 C 104.69 358.36 98.04 355.86 92.24 351.86 C 89.02 349.64 85.64 347.65 82.24 345.73 C 80.16 344.18 78.09 342.38 77.00 339.98 C 74.79 334.17 70.76 329.04 69.99 322.73 C 69.12 316.19 69.83 309.57 69.56 303.00 C 69.29 296.22 70.35 289.50 71.67 282.88 C 73.42 274.16 77.71 266.30 80.98 258.11 C 85.49 246.90 91.80 236.53 98.39 226.44 C 101.40 222.03 104.47 217.65 106.97 212.93 C 108.29 210.67 109.90 208.59 111.68 206.69 C 115.74 202.74 118.48 197.51 123.28 194.33 C 125.54 192.94 127.76 191.48 129.81 189.79 C 133.81 186.50 138.50 184.15 142.27 180.56 C 144.56 183.31 146.05 186.95 149.27 188.77 C 155.24 191.32 161.91 190.51 168.18 191.67 C 175.88 193.20 183.89 192.31 191.49 194.46 C 191.66 196.47 191.85 198.70 190.28 200.25 C 181.02 211.55 173.83 224.39 167.52 237.51 C 165.21 242.30 163.89 247.52 161.18 252.11 C 160.04 254.11 158.27 255.74 156.09 256.54 C 155.11 255.57 153.05 254.60 153.64 252.93 C 157.14 236.99 165.61 222.78 174.04 209.00 C 177.02 203.95 181.56 199.90 183.77 194.38 C 177.98 194.73 172.30 196.02 166.65 197.22 C 158.90 198.88 152.22 203.34 145.83 207.80 C 135.07 215.77 127.42 226.94 119.81 237.76 C 113.86 247.14 107.71 256.49 103.59 266.86 C 101.05 273.67 96.38 279.57 94.84 286.76 C 92.55 294.66 93.54 302.93 93.32 311.03 C 93.32 317.14 94.50 324.34 99.94 328.02 C 106.37 332.56 113.45 336.34 121.11 338.28 C 127.05 339.75 133.18 340.13 139.21 341.11 C 145.63 342.27 152.22 340.87 158.62 342.20 C 163.27 343.08 168.09 342.05 172.70 343.27 C 178.27 345.47 184.23 343.66 189.99 343.81 C 211.00 343.82 232.00 343.85 253.00 343.79 C 261.03 343.59 269.09 345.28 277.06 343.66 C 288.19 341.82 299.52 340.79 310.33 337.42 C 318.18 335.50 326.73 334.43 333.26 329.27 C 337.47 325.96 342.47 323.13 345.12 318.31 C 346.40 313.67 347.07 308.75 346.46 303.94 C 344.85 297.52 341.80 291.53 338.03 286.11 C 331.80 275.30 325.34 264.60 319.51 253.56 C 314.12 242.19 307.86 231.02 299.29 221.72 C 295.13 216.01 288.34 213.38 282.86 209.22 C 272.82 201.98 260.40 199.45 249.79 193.31 C 256.99 193.62 263.81 189.60 267.80 183.76 C 270.82 179.06 269.90 173.21 269.85 167.93 C 269.90 163.95 267.58 160.55 265.18 157.60 C 267.06 158.36 268.89 159.91 271.05 159.33 C 278.50 158.24 285.25 154.73 292.23 152.10 C 297.70 149.87 303.86 148.53 308.14 144.14 C 312.88 139.83 316.38 133.59 315.64 127.00 C 315.36 119.03 310.19 112.52 304.90 107.04 C 299.17 102.24 291.73 100.37 284.69 98.39 C 279.61 96.77 274.24 97.58 269.01 97.40 C 265.58 97.51 261.93 96.89 258.74 98.44 C 252.20 101.17 247.20 106.37 242.46 111.45 C 238.86 115.39 237.78 120.79 235.25 125.36 C 230.08 134.83 228.97 145.91 229.48 156.52 C 232.08 156.55 234.69 156.65 237.30 156.48 C 234.61 157.12 231.85 157.45 229.09 157.54 C 224.14 157.71 219.31 158.91 214.38 159.36 C 196.24 160.77 178.09 158.70 159.95 158.41 C 155.08 158.14 149.55 159.39 146.84 163.85 C 145.16 167.42 144.77 171.44 143.55 175.18 C 135.41 174.20 127.33 171.98 120.22 167.83 C 117.26 166.06 114.25 164.38 111.18 162.80 C 110.33 162.32 109.67 161.65 109.22 160.79 C 107.39 157.34 105.10 154.18 103.11 150.83 C 93.58 133.82 95.96 111.68 106.75 95.82 C 109.88 90.68 114.53 86.63 117.26 81.23 C 117.77 80.08 118.91 79.50 119.95 78.91 C 125.39 76.11 129.84 71.56 135.71 69.57 M 130.78 103.78 C 124.55 110.88 120.54 120.47 121.45 130.00 C 122.22 135.62 124.61 141.25 128.90 145.06 C 133.14 147.61 137.90 149.23 142.65 150.57 L 141.76 151.31 C 145.67 151.79 149.67 151.17 153.54 152.13 C 157.21 153.03 161.03 152.14 164.71 152.97 C 170.57 154.42 176.66 152.68 182.53 154.06 C 186.71 154.44 190.97 156.33 195.16 155.18 C 195.98 150.50 195.34 145.72 195.50 141.00 C 195.29 134.62 196.48 127.98 193.96 121.90 C 191.81 116.31 190.63 109.11 184.98 105.94 C 181.11 99.62 175.02 94.88 167.97 92.64 C 161.17 90.74 154.04 91.42 147.08 91.55 C 140.23 93.07 134.76 98.22 130.78 103.78 Z" />
<path fill="#7b7874" opacity="1.00" d=" M 206.58 193.35 C 208.45 193.18 210.31 192.91 212.18 192.74 C 213.15 198.25 210.64 204.58 213.88 209.49 C 215.03 214.78 213.90 220.22 214.60 225.55 C 215.28 230.52 215.89 235.49 216.71 240.44 C 216.50 244.82 216.30 249.21 216.20 253.60 C 214.49 253.28 211.91 253.53 211.62 251.24 C 209.01 242.12 208.35 232.56 207.34 223.17 C 205.84 213.29 206.93 203.29 206.58 193.35 Z" />
<path fill="#7b7874" opacity="1.00" d=" M 237.69 202.24 C 234.86 200.04 238.78 197.10 241.00 196.50 C 243.61 197.47 245.32 199.85 247.33 201.68 C 256.44 209.95 261.59 221.41 266.48 232.46 C 269.74 238.05 271.84 244.17 274.14 250.18 C 274.85 251.95 273.84 253.76 273.47 255.49 C 272.85 255.74 271.62 256.24 271.00 256.49 C 268.76 254.38 265.93 252.54 264.94 249.46 C 258.04 232.65 251.35 214.87 237.69 202.24 Z" />
</g>
<g id="#64ccffff">
<path fill="#64ccff" opacity="1.00" d=" M 237.30 156.48 C 243.72 154.59 250.46 155.35 257.05 155.25 C 259.94 155.18 262.61 156.42 265.18 157.60 C 267.58 160.55 269.90 163.95 269.85 167.93 C 269.90 173.21 270.82 179.06 267.80 183.76 C 263.81 189.60 256.99 193.62 249.79 193.31 C 243.35 190.08 235.76 189.90 228.77 191.06 C 223.31 192.31 217.75 192.68 212.18 192.74 C 210.31 192.91 208.45 193.18 206.58 193.35 C 206.24 193.36 205.55 193.38 205.21 193.39 C 200.66 192.74 195.99 192.15 191.45 193.23 C 191.46 193.54 191.48 194.15 191.49 194.46 C 183.89 192.31 175.88 193.20 168.18 191.67 C 161.91 190.51 155.24 191.32 149.27 188.77 C 146.05 186.95 144.56 183.31 142.27 180.56 C 142.60 178.75 143.04 176.95 143.55 175.18 C 144.77 171.44 145.16 167.42 146.84 163.85 C 149.55 159.39 155.08 158.14 159.95 158.41 C 178.09 158.70 196.24 160.77 214.38 159.36 C 219.31 158.91 224.14 157.71 229.09 157.54 C 231.85 157.45 234.61 157.12 237.30 156.48 Z" />
</g>
</svg>
